<?xml version="1.0" encoding="UTF-8"?>
<!DOCTYPE svg PUBLIC "-//W3C//DTD SVG 1.1//EN" "http://www.w3.org/Graphics/SVG/1.1/DTD/svg11.dtd">
<!-- Creator: CorelDRAW 2018 (64-Bit) -->
<svg xmlns="http://www.w3.org/2000/svg" xml:space="preserve" width="1391px" height="670px" version="1.1" style="shape-rendering:geometricPrecision; text-rendering:geometricPrecision; image-rendering:optimizeQuality; fill-rule:evenodd; clip-rule:evenodd"
viewBox="0 0 139100 66997"
 xmlns:xlink="http://www.w3.org/1999/xlink">
 <defs>
  <style type="text/css">
   <![CDATA[
    .fil1 {fill:#5B5B5B}
    .fil0 {fill:#0087D9;fill-rule:nonzero}
   ]]>
  </style>
 </defs>
 <g id="Слой_x0020_1">
  <metadata id="CorelCorpID_0Corel-Layer"/>
  <path class="fil0" d="M118868 39226l-22 11 -51 22c-644,282 -1316,509 -2015,687l-73 18 -94 22c-1169,293 -2392,451 -3651,451 -8276,0 -14987,-6711 -14987,-14987 0,-8276 6711,-14986 14987,-14986 8276,0 14986,6710 14986,14986 0,6179 -3742,11484 -9080,13776zm-5809 -39226c-7466,0 -13559,2654 -18178,6977 -5010,4717 -8057,11301 -8057,18473 0,7075 2851,13560 7469,18179 4618,4618 11201,7271 18766,7271 7469,0 13759,-2653 18377,-7075 5011,-4716 7664,-11300 7664,-18375 0,-6976 -2554,-13166 -7173,-17784 -4620,-4717 -11300,-7666 -18868,-7666zm-113053 14347c0,4226 1276,7173 3537,9532 2456,2653 6092,4127 10710,4912l10612 1868c2359,392 4422,982 5700,1769 1080,589 1670,1375 1670,2358 0,1474 -786,2750 -2456,3733 -1671,786 -4324,1670 -9826,1670 -4867,0 -8620,-668 -13838,-2904l-6115 8874c6829,3564 12039,4741 20051,4741 8941,0 15427,-1867 19553,-5699 2752,-2653 4325,-5994 4325,-10612 0,-4324 -1573,-7173 -3538,-9434 -3242,-3144 -8254,-4618 -13757,-5698l-9334 -1573c-2064,-294 -3439,-785 -4324,-1572 -688,-491 -983,-1179 -983,-2064 0,-1080 590,-1964 1769,-2653 1867,-884 4422,-1080 7861,-1080 5404,0 9925,983 16213,3832l112 -251c-87,-2776 -245,-8273 -208,-11071 -6013,-2314 -11310,-3025 -16412,-3025 -5502,0 -11497,983 -15820,3833 -3242,2260 -5502,5699 -5502,10514zm46486 36413l41145 0 0 -10685 -29161 0 0 -9188 25267 0 0 -10686 -25267 0 0 -8588 28263 0 0 -10786 -40247 0 0 49933z"/>
  <path class="fil1" d="M15876 58132l0 8705 1741 0 0 -7138 4105 0 0 7138 1741 0 0 -8705 -7587 0zm24045 3221c0,-827 -290,-1480 -740,-2045 -624,-740 -1538,-1176 -2582,-1176l-4222 0 0 8705 1770 0 0 -2307 2452 0c928,0 1726,-333 2350,-928 580,-566 972,-1364 972,-2249zm-3337 1596l-2437 0 0 -3221 2321 0c566,0 1045,145 1320,479 232,276 377,638 377,1146 0,421 -145,784 -420,1088 -291,334 -682,508 -1161,508zm16269 -4976c-1393,0 -2568,537 -3380,1407 -769,813 -1219,1886 -1219,3105 0,1175 464,2336 1204,3105 798,870 2002,1407 3395,1407 1393,0 2524,-493 3352,-1349 797,-813 1247,-1901 1247,-3163 0,-1262 -464,-2380 -1335,-3235 -812,-798 -1915,-1277 -3264,-1277zm-2872 4512c0,-871 304,-1567 783,-2075 522,-566 1277,-870 2089,-870 885,0 1581,304 2089,827 479,522 755,1247 755,2118 0,856 -305,1538 -769,2045 -508,566 -1262,885 -2075,885 -827,0 -1581,-362 -2089,-899 -479,-522 -783,-1204 -783,-2031zm17531 -15c0,-827 348,-1610 856,-2118 522,-508 1233,-812 2002,-812 972,0 1741,333 2553,1088l1030 -1175c-1088,-1045 -2089,-1480 -3583,-1480 -1349,0 -2496,493 -3308,1305 -812,827 -1277,1916 -1277,3192 0,1335 479,2467 1306,3279 812,798 1930,1248 3279,1248 1494,0 2495,-435 3583,-1538l-1030 -1146c-812,740 -1581,1102 -2553,1102 -769,0 -1509,-304 -2075,-870 -464,-464 -783,-1190 -783,-2075zm14702 -2771l3134 0 0 7138 1697 0 0 -7138 3134 0 0 -1567 -7965 0 0 1567zm20244 -1726c-1393,0 -2568,537 -3380,1407 -769,813 -1219,1886 -1219,3105 0,1175 464,2336 1204,3105 798,870 2002,1407 3395,1407 1393,0 2525,-493 3351,-1349 798,-813 1248,-1901 1248,-3163 0,-1262 -464,-2380 -1335,-3235 -812,-798 -1915,-1277 -3264,-1277zm-2872 4512c0,-871 304,-1567 783,-2075 522,-566 1277,-870 2089,-870 885,0 1581,304 2089,827 479,522 755,1247 755,2118 0,856 -305,1538 -769,2045 -508,566 -1262,885 -2075,885 -827,0 -1581,-362 -2089,-899 -479,-522 -783,-1204 -783,-2031zm23639 -1132c0,-827 -290,-1480 -740,-2045 -624,-740 -1538,-1176 -2583,-1176l-4221 0 0 8705 1769 0 0 -2307 2452 0c929,0 1727,-333 2351,-928 580,-566 972,-1364 972,-2249zm-3337 1596l-2438 0 0 -3221 2322 0c566,0 1044,145 1320,479 232,276 377,638 377,1146 0,421 -145,784 -420,1088 -291,334 -682,508 -1161,508z"/>
 </g>
</svg>
